<?xml version="1.0" encoding="utf-8"?>
<!-- Generator: Adobe Illustrator 12.0.0, SVG Export Plug-In . SVG Version: 6.00 Build 51448)  -->
<!DOCTYPE svg PUBLIC "-//W3C//DTD SVG 1.1//EN" "http://www.w3.org/Graphics/SVG/1.1/DTD/svg11.dtd" >
<svg  version="1.1" id="Layer_1" xmlns="http://www.w3.org/2000/svg" xmlns:xlink="http://www.w3.org/1999/xlink" width="360" height="428.986"
	 viewBox="0 0 360 428.986" overflow="visible" enable-background="new 0 0 360 428.986" xml:space="preserve">
<g>
	<path fill="none" d="M248.458,408.252c0.001-0.005,0.002-0.011,0.002-0.016C248.46,408.241,248.458,408.247,248.458,408.252
		c4.478,0.921,10.522,2.236,16.921,3.243C257.489,409.866,248.517,408.035,248.458,408.252z"/>
	<path fill="none" d="M129.041,406.682c2.417,0.239,7.234,0.715,11.292,0.795c-0.102-0.086-0.208-0.172-0.303-0.266
		C136.15,407.38,131.721,406.945,129.041,406.682z"/>
	<path fill="none" d="M243.035,387.013c-0.739-0.58-1.52-1.105-2.334-1.586C241.468,386.033,242.243,386.578,243.035,387.013z"/>
	<path fill="none" d="M116.01,389.568c-0.104,0.293-0.209,0.574-0.313,0.873c-4.539,13.009-0.594,14.912,12.507,16.157
		C114.015,405.248,111.514,402.669,116.01,389.568z"/>
	<path fill="none" d="M123.668,375.003c-0.417,0.513-0.81,1.03-1.191,1.551c0.947-0.834,2.063-1.492,3.406-1.954
		C124.993,374.469,124.15,374.412,123.668,375.003z"/>
	<path fill="none" d="M174.167,98.744c0.192-0.271,0.373-0.552,0.563-0.826c-1.22,1.705-2.554,3.313-3.961,4.856
		C172.039,101.455,173.198,100.116,174.167,98.744z"/>
	<path fill="none" d="M257.425,379.858c-0.098,0.178-0.197,0.362-0.294,0.537c0.239-0.134,0.487-0.263,0.741-0.384
		C257.715,379.969,257.574,379.91,257.425,379.858z"/>
	<path fill="none" d="M292.341,381.008c0.051,0.032,0.103,0.064,0.151,0.097C292.444,381.069,292.391,381.043,292.341,381.008z"/>
	<path fill="none" d="M228.142,382.804c-1.903-0.73-2.115-0.926-3.426,0.649C225.854,382.905,227.001,382.729,228.142,382.804z"/>
	<path fill="none" d="M281.212,378.382c4.638,0.269,7.907,0.887,10.301,2.135C289.096,379.19,285.813,378.564,281.212,378.382z"/>
	<path fill="none" d="M194.124,40.761c-0.004,0.395-0.03,0.791-0.04,1.187C194.094,41.552,194.12,41.156,194.124,40.761z"/>
	<path fill="none" d="M89.402,221.051c-0.293,0.174-0.586,0.352-0.878,0.537C88.815,221.405,89.107,221.223,89.402,221.051z"/>
	<path fill="none" d="M193.635,49.002c-0.025,0.24-0.061,0.479-0.09,0.719C193.574,49.481,193.609,49.242,193.635,49.002z"/>
	<path fill="none" d="M239.143,388.153c-2.019-1.629-4.31-3.073-6.247-3.833c2.183,1.149,4.254,2.689,6.096,3.75
		C239.041,388.1,239.095,388.124,239.143,388.153z"/>
	<path fill="none" d="M193.098,53.159c-0.009,0.053-0.021,0.107-0.029,0.16C193.077,53.266,193.089,53.212,193.098,53.159z"/>
	<path fill="none" d="M193.978,44.873c-0.021,0.365-0.062,0.728-0.087,1.092C193.916,45.6,193.956,45.237,193.978,44.873z"/>
	<path fill="none" d="M77.447,160.126c-0.332-0.625-0.668-1.232-1.01-1.82C76.778,158.892,77.114,159.503,77.447,160.126z"/>
	<path fill="none" d="M78.678,162.55c-0.358-0.746-0.722-1.468-1.091-2.169C77.956,161.082,78.32,161.804,78.678,162.55z"/>
	<path fill="none" d="M67.484,94.807c-1.138-3.782-3.919-6.965-6.144-10.336C62.946,88.316,64.973,91.809,67.484,94.807z"/>
	<path fill="none" d="M74.049,32.821c0.088,0.172,0.17,0.349,0.258,0.522C74.224,33.168,74.133,32.996,74.049,32.821z"/>
	<path fill="none" d="M300.229,406.519c1.072-2.339,0.02-5.477-1.221-11.423C299.801,398.889,300.768,402.999,300.229,406.519z"/>
	<path fill="none" d="M297.874,196.063c-17.636-8.88-38.801-9.181-56.076,5.49c5.521-4.687,12.044-7.637,19.041-9.382
		C274.026,188.888,286.714,190.732,297.874,196.063z"/>
	<path fill="none" d="M197.705,391.142c-0.176-0.118-0.354-0.233-0.529-0.352C197.351,390.908,197.531,391.021,197.705,391.142z"/>
	<path fill="none" d="M117.392,321.527c-1.899-2.22-3.939-4.395-5.831-6.711C113.385,317.182,115.323,319.429,117.392,321.527z"/>
	<path fill="none" d="M196.067,205.285c2.726-0.035,5.581-0.209,8.478,0.462c-2.078-0.704-3.997-1.069-5.893-1.152
		c-0.979,0.075-1.994,0.209-2.744,0.303C195.965,205.024,196.012,205.156,196.067,205.285z"/>
	<path fill="none" d="M210.967,203.368c-1.81,0.247-3.29,0.864-4.064,2.166C208.003,204.31,209.409,203.668,210.967,203.368z"/>
	<path fill="none" d="M341.137,342.043c0.223-0.387,0.43-0.779,0.62-1.182c-0.183,0.344-0.357,0.695-0.545,1.031
		C341.188,341.936,341.161,341.994,341.137,342.043z"/>
	<path fill="none" d="M160.657,383.303c-0.491,0.132-0.981,0.269-1.467,0.425c0.063-0.36,0.122-0.723,0.183-1.082
		c-0.563,0.212-1.079,0.488-1.545,0.821c-0.129,0.405-0.254,0.808-0.381,1.202c0.18-0.016,0.36-0.026,0.545-0.064
		C158.99,384.396,159.819,383.864,160.657,383.303z"/>
	<path fill="none" d="M200.73,393.335c-0.667-0.516-1.345-1.013-2.029-1.495C199.386,392.328,200.067,392.822,200.73,393.335z"/>
	<path fill="none" d="M199.316,385.287c0.249,2.493,0.743,5.133,1.414,8.048C200.121,390.688,199.648,387.995,199.316,385.287z"/>
	<path fill="none" d="M15.642,211.273c-0.67,0.247-1.503-0.013-2.544-0.985c-0.556-0.521-0.97-1.144-1.293-1.82
		c0.002,0.048,0.004,0.097,0.007,0.145C13.662,213.663,14.853,213.518,15.642,211.273z"/>
	<path fill="none" d="M11.812,208.613c-0.211-0.58-0.428-1.2-0.658-1.919c-0.109-0.343-0.177-0.708-0.224-1.084
		c-0.279,4.54,0.14,8.666,1.411,12.048c6.013,16.008,18.841,21.479,33.602,21.205c-1.691-0.052-3.266-0.169-4.662-0.354
		C20.918,235.813,12.721,223.421,11.812,208.613z"/>
	<path fill="none" d="M55.696,210.563c-0.291-2.999-1.099-5.981-2.909-8.027c1.668,2.561,2.755,6.274,2.855,7.825
		C55.664,210.428,55.676,210.495,55.696,210.563z"/>
	<path fill="none" d="M48.466,200.155c-0.783,0.153-0.433,1.361,0.116,2.759C48.451,201.593,48.368,200.525,48.466,200.155z"/>
	<path fill="none" d="M48.806,216.793c0.382,2.935,2.076,4.359,6.836,0.902c0.072-0.779,0.132-1.656,0.167-2.583
		C54.656,219.19,50.172,220.669,48.806,216.793z"/>
	<path fill="none" d="M11.397,201.218c0.03-0.105,0.061-0.212,0.094-0.317c0.197-0.824,0.444-1.646,0.74-2.443
		c0.278-2.051,0.667-4.113,1.15-6.174C12.499,195.331,11.827,198.332,11.397,201.218z"/>
	<path fill="none" d="M83.465,222.331c0.002-0.011,0.004-0.021,0.007-0.032c-0.008,0.027-0.017,0.057-0.025,0.083
		C83.452,222.366,83.46,222.35,83.465,222.331z"/>
	<path fill="none" d="M80.435,227.851c1.11-1.268,1.999-2.706,2.61-4.327C82.412,225.104,81.533,226.549,80.435,227.851z"/>
	<path fill="none" d="M312.453,356.885c-0.212,0.317-0.405,0.583-0.605,0.867C312.102,357.468,312.328,357.178,312.453,356.885z"/>
	<path fill="none" d="M17.601,191.889c0.111,0.803,0.237,2.054,0.336,3.543C18.567,192.864,18.311,191.843,17.601,191.889z"/>
	<path fill="none" d="M180.831,120.023c-0.314-1.24-0.741-2.448-1.256-3.621C180.009,117.671,180.425,118.87,180.831,120.023z"/>
	<path fill="none" d="M89.769,220.844c0.435-0.247,0.873-0.483,1.313-0.709c0.03-0.026,0.06-0.056,0.09-0.086
		C90.7,220.296,90.235,220.575,89.769,220.844z"/>
	<path fill="none" d="M185.614,198.195c0.189,0.502,0.365,1.009,0.558,1.509c0.545,1.42,1.813,1.976,3.395,2.118
		c-0.057-0.019-0.125-0.03-0.174-0.051C188.004,201.161,186.752,199.897,185.614,198.195z"/>
	<path fill="none" d="M44.611,147.023c0.363-0.158,0.726-0.306,1.087-0.443c11.936-5.246,22.52-2.335,30.718,11.693
		C68.09,143.969,57.299,140.9,44.611,147.023z"/>
	<path fill="none" d="M32.55,155.077c0.176-2.537,0.574-5.028,1.138-7.475c-1.138,2.973-2.197,6.042-3.17,9.233
		c3.174-2.813,6.291-5.193,9.334-7.114c0.09-0.064,0.179-0.131,0.269-0.196C37.661,151.069,35.137,152.916,32.55,155.077z"/>
	<path fill="none" d="M66.911,100.61c-1.439,1.264-2.836,2.538-4.193,3.824c0.124-0.108,0.248-0.221,0.371-0.33
		C64.622,102.768,66.013,101.788,66.911,100.61z"/>
	<path fill="none" d="M176.651,117.635c-1.364-3.85-2.512-5.945-3.788-6.684c1.356,1.545,2.365,3.902,3.272,5.632
		C176.318,116.933,176.474,117.286,176.651,117.635z"/>
	<path fill="none" d="M312.016,332.609c0.201-0.445,0.419-0.875,0.653-1.283C312.435,331.734,312.217,332.161,312.016,332.609z"/>
	<path fill="none" d="M152.8,125.462c0.007-1.202,0.139-2.333,0.428-3.379C152.341,123.314,152.563,123.449,152.8,125.462z"/>
	<path fill="none" d="M204.767,201.054c1.768-0.896-1.425-3.484-2.198-6.188c-0.003,0.11-0.028,0.201-0.021,0.317
		C202.677,197.419,205.621,198.334,204.767,201.054z"/>
	<path fill="none" d="M170.337,153.533c2.219,5.619,4.178,11.331,6.045,17.073c-0.442-1.624-0.864-3.063-1.278-4.209
		C173.547,162.086,172.081,157.734,170.337,153.533z"/>
	<path fill="none" d="M109.956,69.914c8.59-1.357,22.087-5.307,28.811,1c-0.289-0.888-0.506-1.957-0.592-3.301
		c-9.156-1.699-20.642,0.338-28.85,2.045C109.491,69.846,109.692,69.956,109.956,69.914z"/>
	<path fill="none" d="M311.457,334.005c0.014-0.04,0.032-0.08,0.048-0.12C311.489,333.925,311.471,333.962,311.457,334.005z"/>
	<path fill="none" d="M73.75,32.223c-0.954-1.941-1.975-3.851-3.099-5.714c0.782,1.434,1.399,2.619,1.746,3.225
		C72.865,30.555,73.314,31.385,73.75,32.223z"/>
	<path fill="none" d="M200.795,201.301c1.82,0.143,2.979,0.089,3.66-0.124C203.533,201.105,202.247,201.175,200.795,201.301z"/>
	<path fill="none" d="M110.25,100.567c0.731,0.109,1.469,0.201,2.216,0.274c0.543-0.144,1.118-0.302,1.719-0.474
		C112.828,100.516,111.513,100.58,110.25,100.567z"/>
	<path fill="none" d="M191.278,37.188c-6.751,1.5-13.026,4.819-18.7,9.135c0.691-0.5,1.394-1,2.11-1.497
		C175.855,44.014,186.197,39.025,191.278,37.188z"/>
	<path fill="none" d="M105.817,69.554c-0.644,0.734-1.372,1.901-2.178,3.703c-0.881,1.967-1.247,4.958-1.894,7.444
		c0.847-2.927,1.32-6.621,2.577-8.773C104.9,70.938,105.392,70.164,105.817,69.554z"/>
	<path fill="none" d="M62.618,15.826c-0.313-0.338-0.605-0.686-0.929-1.02c-0.097,0.323-0.191,0.663-0.286,0.993
		c0.19-0.05,0.385-0.089,0.592-0.092C62.194,15.704,62.403,15.749,62.618,15.826z"/>
	<path fill="none" d="M310.974,335.517c0.04-0.14,0.089-0.273,0.132-0.413C311.063,335.243,311.014,335.377,310.974,335.517z"/>
	<path fill="none" d="M306.947,357.854c2.183-6.312,2.115-15.106,3.882-21.782C309.063,342.7,309.024,351.511,306.947,357.854z"/>
	<path fill="#8499AE" d="M293.125,368.136c5.731-42.893,42.242-72.98,40.259-120.01c-0.094-2.258-0.348-4.493-0.729-6.703
		c-1.67-2.861-2.866-5.986-3.501-9.24c0.097-0.668-1.035-2.644,0.071-1.618c0.451,0.757,0.864,1.541,1.247,2.335
		c-5.419-15.822-17.76-29.365-32.599-36.836c-11.16-5.332-23.848-7.176-37.035-3.893c-6.997,1.745-13.52,4.695-19.041,9.382
		c19.31,0.357-15.887,2.464-20.155,2.266c-3.133-0.142-7.427-0.891-10.676-0.451c-1.558,0.3-2.964,0.942-4.064,2.166
		c-0.17,0.285-0.316,0.591-0.414,0.945c-0.666-0.282-1.31-0.518-1.943-0.732c-2.896-0.671-5.752-0.497-8.478-0.462
		c9.271,21.105-11.208,45.54-24.239,59.933c0.165-10.464,15.041-16.777,13.281-28.291c0.301-1.603,0.688-3.216,1.105-4.835
		c-0.391,0.975-0.802,1.922-1.231,2.821c-7.922,16.582-0.622-4.843,0.595-10.676c2.348-11.262-1.727-17.111-4.086-26.708
		c-0.219-0.894-0.45-1.788-0.679-2.682c-0.42-1.095-0.735-2.212-1.102-3.323c-0.676-2.526-1.316-5.06-1.952-7.597
		c-0.674-2.228-1.384-4.445-2.125-6.657c-1.239-1.479-1.319-2.8-1.934-4.473c-0.922-2.024,1.282,2.728,1.836,4.18
		c-4.257-12.649-9.6-24.985-16.271-36.426c0.722,15.317-1.452,27.36-7.019,42.023c-6.47,17.046-13.754,26.659-30.846,33.43
		c-9.684,3.839-22.449,3.369-30.917,8.521c-9.597,5.839-5.57,9.658-3.923,21.21c3.204,22.482,10.156,49.811,25.001,69.082
		c1.891,2.316,3.932,4.491,5.831,6.711c8.871,8.999,20.063,15.334,34.207,17.095c0.33-12.705-12.244-23.939-6.875-37.206
		c0.073-0.021,0.145-0.049,0.218-0.07c4.279,11.144,6.528,27.108,8.781,38.536c-0.008-0.129,0.397-0.69,0.468-0.612
		c-1.938,13.24,1.067,13.787,8.441,23.419c6.862,8.964,2.505,13.28-1.71,3.254c0.09,6.367-1.474,12.386-3.095,17.524
		c0.466-0.333,0.982-0.609,1.545-0.821c-0.061,0.359-0.12,0.722-0.183,1.082c0.486-0.156,0.976-0.293,1.467-0.425
		c0.958-0.639,1.936-1.305,3.176-1.589c-0.121-1.122,9.99-0.126,14.762,0.91c6.628,1.436,12.935,4.373,18.582,8.166
		c0.176,0.118,0.354,0.233,0.529,0.352c0.336,0.23,0.666,0.462,0.996,0.698c0.685,0.482,1.362,0.979,2.029,1.495
		c-0.671-2.915-1.165-5.555-1.414-8.048c-0.454-3.681-0.641-7.391-0.493-11.076c-11.008,3.6-1.597-2.097,1.223-5.211
		c5.656-6.249,6.687-9.248,8.278-17.436c2.056-10.566,6.188-20.238,8.513-30.593c1.576-7.022,1.187-16.614,4.014-22.106
		c5.262,18.674-7.244,36.475-9.97,54.532c13.736-5.388,33.76-2.525,44.416-13.91c3.411-3.646,6.046-10.875,6.873-15.638
		c2.269-13.057,0.81-19.454,9.288-31.097c6.551-8.996,15.761-17.567,18.788-29.728c0.589-2.368,0.893-15.42,2.087-15.313
		c6.066,0.531-0.634,20.842-1.906,23.704c-6.582,14.808-22.429,23.642-25.304,40.675c-2.104,12.47-1.351,23.698-5.94,35.339
		c3.421,1.339,3.284,22.042,1.044,26.96c-0.77,1.691-1.549,3.173-2.305,4.563c2.17-1.157,4.391-1.906,6.769-2.692
		c8.516-2.819,16.869-3.162,23.586-0.68c0.247,0.052,0.505,0.1,0.781,0.138c0.017-0.014,2.236,0.319,0.236,0.268
		c1.903,0.806,3.666,1.848,5.24,3.144c0.15-2.757,0.25-5.529,0.402-8.286C293.229,376.938,291.666,379.054,293.125,368.136z
		 M163.341,148.17C162.394,146.278,162.46,146.409,163.341,148.17L163.341,148.17z M169.404,161.27
		c1.226,2.846,2.407,5.71,3.516,8.601c-0.996-2.024-1.828-4.097-2.711-6.169C169.95,162.889,169.655,162.089,169.404,161.27z"/>
	<path fill="#8499AE" d="M189.446,212.232c-0.007-0.063-0.014-0.124-0.021-0.186C189.434,212.108,189.439,212.17,189.446,212.232z"
		/>
	<path fill="#8499AE" d="M130.58,357.854c0.226,4.375,0.722,12.321-1.449,16.074c0.034-0.003,0.063-0.008,0.097-0.011
		c1.073,0.226,2.753,0.76,4.715,1.498c-0.215-0.282-0.287-0.534-0.185-0.746c0.666-1.404,12.15,3.06,13.846,3.782
		c7.487,3.194,9.07,8.534,9.538-4.528c0.169-4.726,0.185-9.487-1.259-13.804c-1.399-4.178-5.938-4.985-4.932-10.569
		c-5.68-0.832-12.331-5.108-17.673-8.123c-1.898-1.736-5.045-2.924-7.27-4.244c-1.739,7.417,1.686,9.012,3.744,13.733
		C131.033,353.859,137.422,363.483,130.58,357.854z"/>
	<path fill="#8499AE" d="M189.246,210.836c-0.051-0.309-0.102-0.62-0.166-0.929C189.145,210.213,189.193,210.527,189.246,210.836z"
		/>
	<path fill="#8499AE" d="M152.8,125.462c-0.237-2.013-0.459-2.148,0.428-3.379c0.179-0.645,0.397-1.269,0.711-1.843
		c3.358-6.15,11.192-11.607,16.829-17.466c1.407-1.544,2.741-3.151,3.961-4.856c9.181-13.228,15.862-28.607,18.338-44.599
		c0.009-0.053,0.021-0.107,0.029-0.16c0.174-1.144,0.316-2.29,0.447-3.438c0.029-0.24,0.064-0.479,0.09-0.719
		c0.107-1.011,0.184-2.024,0.256-3.038c0.025-0.365,0.065-0.728,0.087-1.092c0.058-0.973,0.082-1.949,0.106-2.924
		c0.01-0.396,0.036-0.792,0.04-1.187c0.017-1.366,0-2.732-0.052-4.099c-0.941,0.135-1.871,0.321-2.794,0.526
		c-5.081,1.837-15.423,6.826-16.59,7.638c-0.717,0.498-1.419,0.997-2.11,1.497c-7.806,5.938-14.475,13.743-19.647,21.291
		c-6.427,9.381-9.17,24.843-17.492,30.664c-1.54,1.077-29.382,7.778-27.679,3.163c-0.187,0.505,1.79,0.172,4.706-0.598
		c-0.747-0.073-1.485-0.165-2.216-0.274c-2.073-0.021-3.998-0.253-5.657-0.745c-0.129,0.159-1.747-0.231-1.222-0.601
		c-13.101,1.678-15.966-21.548-18.106-30.458c-2.953-12.292-5.757-24.411-10.958-35.42c-0.087-0.173-0.17-0.35-0.258-0.522
		c-0.097-0.201-0.202-0.398-0.3-0.598c-0.436-0.838-0.885-1.668-1.354-2.49c-0.347-0.606-0.964-1.791-1.746-3.225
		c-2.259-3.744-4.911-7.314-8.033-10.683c-0.215-0.077-0.423-0.122-0.623-0.119c-0.207,0.002-0.401,0.042-0.592,0.092
		c-5.333,18.483-8.517,48.431-0.063,68.672c2.224,3.371,5.005,6.554,6.144,10.336c0.074,0.088,0.141,0.183,0.216,0.271
		c1.167-1.695,2.167-3.481,3.015-5.339c-6.784,5.674-3.484-2.505-3.987-5.733C64.795,71.601,63.86,57.942,62.12,45.11
		c-1.068-7.882-0.852-23.465,8.603-11.323c2.648,3.4,4.157,12.348,5.276,19.56c1.498,6.326,2.41,13.047,3.129,18.58
		c1.774,13.667-0.673,18.73-10.96,27.572c-0.428,0.368-0.835,0.741-1.257,1.111c-0.898,1.178-2.289,2.158-3.822,3.494
		c-0.124,0.109-0.247,0.221-0.371,0.33c-13.214,12.524-22.525,26.167-29.03,43.168c-0.564,2.447-0.962,4.938-1.138,7.475
		c2.586-2.161,5.11-4.008,7.571-5.552c1.089-0.749,2.188-1.415,3.289-1.959c0.402-0.2,0.801-0.369,1.201-0.542
		c12.688-6.123,23.479-3.055,31.806,11.25c0.007,0.011,0.014,0.021,0.02,0.032c0.341,0.588,0.678,1.195,1.01,1.82
		c0.046,0.086,0.094,0.167,0.141,0.255c0.369,0.701,0.732,1.423,1.091,2.169c8.03,16.768,13.86,42.122,8.026,60.25
		c0.598-0.433,1.207-0.832,1.82-1.213c0.292-0.186,0.584-0.363,0.878-0.537c0.122-0.07,0.245-0.14,0.367-0.207
		c0.466-0.269,0.931-0.548,1.404-0.795c-0.031,0.03-0.06,0.06-0.09,0.086c14.032-7.143,31.035-3.976,44.142-16.083
		c11.63-10.746,26.772-40.38,21.234-54.838C156.555,141.243,152.764,132.251,152.8,125.462z M77.886,132.823
		c-7.398-4.075,7.689-24.342,9.935-12.402C87.877,123.841,83.787,136.071,77.886,132.823z M98.689,138.143
		c-2.884-6.446,5.925-19.753,10.042-8.628C109.658,136.141,103.129,148.063,98.689,138.143z M151.222,83.592
		c6.736-9.291,20.676-32.49,32.736-36.576c2.731-0.926,1.484,1.263-1.305,4.555c0.748-0.543,1.504-1.018,2.204-1.392
		c1.406,8.293-6.075,20.615-8.891,27.571c-4.84,11.957-11.655,25.097-20.066,34.875c-0.47-0.12-0.897-0.264-1.308-0.422
		c0.196,1.472-0.51,2.845-3.208,4.407C136.099,124.374,147.124,89.243,151.222,83.592z"/>
	<path fill="#8499AE" d="M231.829,378.31c3.185,1.654,5.974,4.829,8.872,7.117c0.814,0.48,1.595,1.006,2.334,1.586
		c0.258,0.143,0.518,0.274,0.779,0.393c7.352,3.307,1.105,5.146,6.874-4.314c2.631-4.313,6.51-9.938,9.288-14.381
		c-1.034-7.065-1.227-13.36-7.127-15.997c-6.639-2.963-20.409,1.979-26.995,4.566C231.762,361.371,235.121,371.892,231.829,378.31z"
		/>
	<path fill="#8499AE" d="M188.897,209.156c-0.086-0.346-0.164-0.69-0.269-1.036C188.73,208.46,188.812,208.81,188.897,209.156z"/>
	<path fill="#8499AE" d="M64.813,34.417c0.927-2.95,4.292,1.787,6.449,5.66c0.752,1.349,1.424,2.84,2.041,4.415
		c-1.247-3.708-2.905-7.084-5.315-9.591C65.138,31.937,64.472,32.457,64.813,34.417z"/>
	<path fill="#8499AE" d="M82.675,120.271c-1.222-0.781-1.761,0.284-0.933,0.929C81.949,120.904,82.258,120.584,82.675,120.271z"/>
	<path fill="#8499AE" d="M83.969,121.571c-0.229-0.312-0.444-0.553-0.652-0.763c-0.22,0.303-0.43,0.568-0.616,0.769
		C83.048,121.632,83.466,121.639,83.969,121.571z"/>
	<path fill="#8499AE" d="M104.226,129.75c-1.977-0.367-2.362,2.175-1.34,2.389C102.81,131.66,103.217,130.577,104.226,129.75z"/>
	<path fill="#8499AE" d="M103.719,131.911c0.442-0.276,0.985-0.807,1.629-1.713c-0.169-0.1-0.329-0.177-0.484-0.245
		C104.412,130.914,104.028,131.54,103.719,131.911z"/>
	<path fill="#8499AE" d="M154.744,90.668c6.02-10.86,15.857-22.485,19.731-26.945C166.702,72.628,159.775,80.752,154.744,90.668z"/>
	<path fill="#8499AE" d="M171.54,64.301c1.034-1.427,2.091-2.833,3.18-4.218c-3.44,3.519-6.621,6.684-7.641,7.925
		c1.754-1.446,3.624-2.815,5.375-4.213C172.407,63.776,172.178,63.915,171.54,64.301z"/>
	<path fill="#8499AE" d="M70.611,19.814C70.131,19.147,70.065,19.057,70.611,19.814L70.611,19.814z"/>
	<path fill="#8499AE" d="M229.146,372.75c0.2-0.912,0.292-1.887,0.235-2.947C229.173,370.914,229.121,371.904,229.146,372.75z"/>
	<path fill="#FFCFCE" d="M174.719,60.083c-1.088,1.384-2.146,2.791-3.18,4.218c0.639-0.386,0.867-0.525,0.914-0.505
		c0.042-0.033,0.087-0.067,0.13-0.101c-0.105,0.064-0.415,1.071-0.433,1.079c1.216-1.042,2.349-1.937,3.635-2.553
		c-0.44,0.505-0.875,1.003-1.311,1.503c-3.874,4.46-13.711,16.084-19.731,26.945c-0.981,1.936-1.901,3.933-2.73,6.026
		c-3.222,8.131,2.127,12.089,2.578,15.508c0.411,0.158,0.837,0.302,1.308,0.422c8.412-9.777,15.226-22.918,20.066-34.875
		c2.816-6.956,10.296-19.277,8.891-27.571c-0.699,0.374-1.456,0.848-2.204,1.392C180.541,54.065,177.544,57.193,174.719,60.083z"/>
	<path fill="#FFCFCE" d="M62.12,45.11c1.74,12.832,2.675,26.491,4.608,38.895c0.503,3.228-2.797,11.408,3.987,5.733
		c3.8-8.341,4.438-18.182,2.455-28.128c-1.444-7.244-8.631-19.207-8.602-25.092c0.005-0.935,0.093-1.618,0.245-2.102
		c-0.342-1.96,0.324-2.48,3.174,0.484c2.411,2.507,4.068,5.883,5.315,9.591c1.069,2.732,1.958,5.741,2.696,8.855
		c-1.119-7.212-2.627-16.16-5.276-19.56C61.268,21.645,61.052,37.228,62.12,45.11z"/>
	<path fill="#634221" d="M205.935,187.17c-0.198-0.304-0.413-0.569-0.637-0.824c0.019,0.056,0.034,0.113,0.053,0.169
		C205.592,186.759,205.795,186.982,205.935,187.17z"/>
	<path fill="#634221" d="M163.341,148.17C162.46,146.409,162.394,146.278,163.341,148.17L163.341,148.17z"/>
	<path fill="#634221" d="M171.828,265.218c13.032-14.394,33.51-38.828,24.239-59.933c-0.056-0.129-0.103-0.26-0.159-0.387
		c0.75-0.094,1.765-0.228,2.744-0.303c-3.355-0.147-6.641,0.566-10.627,1.777c0.228,0.569,0.426,1.154,0.604,1.748
		c0.104,0.346,0.183,0.69,0.269,1.036c0.062,0.25,0.129,0.497,0.183,0.751c0.064,0.309,0.115,0.62,0.166,0.929
		c0.07,0.403,0.131,0.806,0.18,1.211c0.007,0.062,0.014,0.123,0.021,0.186c0.756,6.531-0.796,13.806-3.231,19.859
		c-0.417,1.619-0.805,3.232-1.105,4.835C186.869,248.44,171.993,254.754,171.828,265.218z"/>
	<path fill="#634221" d="M179.574,116.402c0.515,1.173,0.942,2.381,1.256,3.621c0.056,0.161,0.113,0.325,0.169,0.485
		c0.255-4.234-1.819-8.939-4.227-10.547c0.665,1.274,1.604,2.933,2.613,5.894C179.451,116.044,179.511,116.214,179.574,116.402z"/>
	<path fill="#634221" d="M185.426,131.207c-0.246-0.421-0.572-0.805-0.923-1.162c0.099,0.26,0.201,0.522,0.301,0.779
		C185.01,130.954,185.202,131.1,185.426,131.207z"/>
	<path fill="#634221" d="M188.404,139.745c1.698,4.079,3.604,8.546,6.021,14.312C193.061,149.841,190.403,144.048,188.404,139.745z"
		/>
	<path fill="#634221" d="M169.404,161.27c0.251,0.819,0.546,1.619,0.804,2.432c0.883,2.072,1.715,4.145,2.711,6.169
		C171.811,166.98,170.629,164.116,169.404,161.27z"/>
	<path fill="#634221" d="M204.455,201.177c0.117-0.038,0.221-0.078,0.312-0.124c0.854-2.719-2.09-3.635-2.219-5.871
		c-0.008-0.116,0.018-0.207,0.021-0.317c-0.404-1.412-0.149-2.854,1.833-4.097c-6.454-6.196-6.08-8.625-7.811-17.973
		c-2.003-10.826-6.604-19.685-11.084-29.513c-2.094-4.588-2.09-6.397-3.456-10.534c-1.395-4.216-3.571-9.902-5.328-14.918
		c-0.024-0.071-0.048-0.127-0.072-0.197c-0.177-0.349-0.333-0.703-0.516-1.052c-0.907-1.73-1.917-4.086-3.272-5.632
		c-2.051-1.187-4.443,1.12-8.63,5.334c-14.272,14.368-0.761,20.179,5.597,35.931c0.177,0.436,0.335,0.879,0.507,1.316
		c1.744,4.201,3.21,8.553,4.768,12.864c0.414,1.146,0.836,2.585,1.278,4.209c3.001,9.235,5.82,18.528,9.232,27.588
		c1.138,1.702,2.39,2.966,3.778,3.576c0.049,0.021,0.117,0.032,0.174,0.051c3.289,0.298,7.953-1.216,10.408-0.591
		c0.294,0.03,0.556,0.048,0.82,0.07C202.247,201.175,203.533,201.105,204.455,201.177z"/>
	<path fill="#634221" d="M180.813,194.847c-0.936-3.651-1.953-7.293-3.054-10.92c0.635,2.537,1.275,5.071,1.952,7.597
		C180.078,192.635,180.393,193.752,180.813,194.847z"/>
	<path fill="#634221" d="M173.701,172.797c0.615,1.673,0.695,2.994,1.934,4.473c-0.034-0.097-0.066-0.193-0.098-0.292
		C174.982,175.524,172.778,170.773,173.701,172.797z"/>
	<path fill="#634221" d="M341.757,340.861c-0.19,0.402-0.397,0.795-0.62,1.182c-0.508,0.969-1.343,3.105-2.354,5.686
		c1.246-2.339,2.314-4.763,3.187-7.27C341.899,340.593,341.826,340.725,341.757,340.861z"/>
	<path fill="#634221" d="M329.154,232.183c0.635,3.254,1.831,6.379,3.501,9.24c-0.501-2.896-1.231-5.744-2.183-8.523
		c-0.383-0.794-0.796-1.578-1.247-2.335C328.119,229.539,329.251,231.515,329.154,232.183z"/>
	<path fill="#634221" d="M329.803,221.504c1.179,3.641,2.485,7.237,3.922,10.786c-0.011,0.009-0.628-1.423-1.007-1.079
		c12.424,31.89-5.022,69.51-10.042,100.904c-1.506-3.073-1.71-8.464-1.764-12.832c-6.035,10.314-2.935,38.383-8.243,12.043
		c-0.234,0.408-0.452,0.838-0.653,1.283c-0.185,0.41-0.352,0.838-0.511,1.275c-0.016,0.04-0.034,0.08-0.048,0.12
		c-0.126,0.354-0.239,0.728-0.352,1.099c-0.043,0.14-0.092,0.273-0.132,0.413c-0.052,0.18-0.095,0.37-0.145,0.556
		c-1.767,6.676-1.699,15.471-3.882,21.782c2.636-4.459,8.102-8.258,8.386-1.077c5.576-14.855,5.438,7.463,6.838,13.624
		c2.387-4.236,6.886-26.565,9.862-14.775c3.647-7.385,6.158-15.69,9.144-23.473C356.1,291.706,345.131,258.356,329.803,221.504z"/>
	<path fill="#634221" d="M310.894,359.038c1.895,0.169,0.982-0.803,1.56-2.153c-0.125,0.293-0.352,0.583-0.605,0.867
		C311.514,358.228,311.196,358.654,310.894,359.038z"/>
	<path fill="#634221" d="M216.593,389.797c0.685-1.358,1.401-2.703,2.19-4.006c-3.686,3.936-6.18,8.938-6.746,14.287
		c1.061-3.181,2.688-6.604,4.387-9.979C216.478,389.995,216.539,389.898,216.593,389.797z"/>
	<path fill="#634221" d="M292.492,381.104c-0.049-0.032-0.101-0.064-0.151-0.097c-0.263-0.175-0.542-0.336-0.828-0.491
		c-2.394-1.248-5.663-1.866-10.301-2.135c-0.492-0.019-0.97-0.045-1.493-0.054c-6.27-0.12-16.258,3.238-21.847,1.684
		c-0.254,0.121-0.502,0.25-0.741,0.384c-1.807,3.289-3.389,6.239-4.21,10.459c-0.933,4.789-2.886,11.489-4.461,17.382
		c0,0.005-0.001,0.011-0.002,0.016c0.059-0.217,9.031,1.614,16.921,3.243c10.472,1.648,21.887,2.47,28.935-0.617
		c3.432-1.503,5.175-2.743,5.916-4.359c0.538-3.52-0.429-7.63-1.221-11.423C297.498,387.845,295.981,383.536,292.492,381.104z"/>
	<path fill="#634221" d="M289.058,375.72c-0.276-0.038-0.534-0.086-0.781-0.138c0.344,0.127,0.682,0.264,1.018,0.405
		C291.294,376.039,289.074,375.706,289.058,375.72z"/>
	<path fill="#634221" d="M224.716,383.453c-0.633,0.763-1.524,1.933-3.001,3.664c-5.125,6.008-5.991,15.469-8.423,22.717
		c2.647,1.041,5.854,1.747,8.71,1.366c10.76-1.404,29.242-1.205,21.92-17.721c-0.68-1.535-2.562-3.535-4.779-5.326
		c-0.048-0.029-0.102-0.054-0.151-0.083c-1.842-1.061-3.913-2.601-6.096-3.75c-0.421-0.164-0.832-0.309-1.212-0.402
		c-1.639-0.405-2.735-0.806-3.542-1.114C227.001,382.729,225.854,382.905,224.716,383.453z"/>
	<path fill="#634221" d="M185.241,419.213c-1.753,0.107-5.016,0.416-8.965,0.682C179.153,419.865,183.794,419.436,185.241,419.213z"
		/>
	<path fill="#634221" d="M157.991,384.604c-0.185,0.038-0.365,0.049-0.545,0.064c-0.198,0.609-0.397,1.219-0.59,1.799
		c-1.146,3.447-10.727,24.04-9.576,26.745c3.458,8.118,53.769,4.83,57.517-1.94c9.023-16.287-25.404-24.367-33.942-26.78
		c-5.049-1.428-6.97-2.295-7.022-2.778c-1.24,0.284-2.218,0.95-3.176,1.589C159.819,383.864,158.99,384.396,157.991,384.604z"/>
	<path fill="#634221" d="M207.941,408.942c0.346-1.09,0.431-2.309,0.198-3.675C208.199,406.623,208.131,407.845,207.941,408.942z"/>
	<path fill="#634221" d="M129.131,373.929c-0.046,0.08-0.086,0.172-0.135,0.247c-0.6,0.937-1.9,0.606-3.112,0.424
		c-1.343,0.462-2.459,1.12-3.406,1.954c-2.833,3.877-4.688,8.035-6.467,13.015c-4.496,13.101-1.995,15.68,12.194,17.03
		c0.228,0.024,0.517,0.051,0.837,0.083c2.68,0.264,7.109,0.698,10.988,0.529c0.095,0.094,0.201,0.18,0.303,0.266
		c2.961,0.062,5.517-0.086,6.408-0.698c1.498-1.025,6.76-17.234,5.868-19.878c-0.988-2.924-16.578-8.722-18.665-11.484
		c-1.962-0.738-3.643-1.272-4.715-1.498C129.194,373.921,129.165,373.926,129.131,373.929z"/>
	<path fill="#634221" d="M104.593,99.822c1.659,0.492,3.583,0.724,5.657,0.745c1.263,0.013,2.579-0.052,3.936-0.199
		c6.9-1.969,17.098-5.613,18.805-7.088c4.345-3.75,4.513-2.979,7.235-8.986c4.187-9.234,0.183-8.328-1.459-13.379
		c-6.723-6.307-20.221-2.357-28.811-1c-0.264,0.042-0.464-0.068-0.631-0.255c-0.005,0.001-0.011,0.002-0.017,0.003
		c-0.052,0.012-1.277-2.629-3.491-0.108c-0.425,0.609-0.917,1.384-1.495,2.373c-1.257,2.153-1.73,5.847-2.577,8.773
		c-0.847,3.255-2.178,5.644-5.792,3.736c-5.368,7.657,3.474,11.675,9.394,14.378c-0.687,0.204-1.34,0.324-1.978,0.406
		C102.846,99.591,104.463,99.981,104.593,99.822z"/>
	<path fill="#FFCFCE" d="M11.343,201.566c0.045-0.223,0.094-0.443,0.148-0.666c-0.033,0.104-0.064,0.212-0.094,0.317
		C11.38,201.333,11.36,201.451,11.343,201.566z"/>
	<path fill="#FFCFCE" d="M11.812,208.613c-0.003-0.048-0.005-0.097-0.007-0.145c-0.568-1.192-0.809-2.583-0.785-4.064
		c-0.036,0.405-0.066,0.805-0.09,1.205c0.047,0.376,0.115,0.741,0.224,1.084C11.384,207.414,11.601,208.034,11.812,208.613z"/>
	<path fill="#FFCFCE" d="M83.447,222.382c0.009-0.026,0.017-0.056,0.025-0.083c5.22-20.963-0.119-56.063-16.565-71.106
		c-19.881-18.19-45.48,13.331-53.525,41.091c-0.484,2.062-0.873,4.124-1.15,6.174c1.268-3.423,3.322-6.432,5.186-7.508
		c0.048,0.102,0.113,0.435,0.184,0.939c0.709-0.046,0.966,0.975,0.336,3.543c0.38,5.696,0.371,14.861-2.295,15.841
		c-0.79,2.244-1.98,2.39-3.83-2.66c0.909,14.808,9.106,27.199,29.469,29.895c1.396,0.186,2.971,0.303,4.662,0.354
		c3.805-0.07,7.737-0.519,11.715-1.271c7.305-1.382,17.47-3.688,22.776-9.741c1.099-1.302,1.977-2.746,2.61-4.327
		C83.186,223.147,83.338,222.776,83.447,222.382z M55.642,217.695c-4.76,3.457-6.454,2.032-6.836-0.902
		c-0.513-1.455-0.586-3.662,0.123-6.773c0.3-1.313-0.105-4.642-0.347-7.106c-0.549-1.398-0.899-2.606-0.116-2.759
		c0.02-0.081,0.047-0.134,0.085-0.145c1.611-0.502,3.066,0.73,4.236,2.526c1.81,2.045,2.618,5.028,2.909,8.027
		c0.504,1.718,0.477,3.264,0.113,4.55C55.774,216.039,55.714,216.916,55.642,217.695z"/>
	<path fill="#FFCFCE" d="M43.41,147.566c-1.101,0.545-2.199,1.21-3.289,1.959c-0.089,0.064-0.178,0.131-0.269,0.196
		c1.98-1.25,3.931-2.299,5.846-3.141c-0.361,0.137-0.724,0.285-1.087,0.443C44.211,147.197,43.812,147.366,43.41,147.566z"/>
	<path d="M341.212,341.893c0.188-0.336,0.362-0.688,0.545-1.031c0.069-0.137,0.143-0.269,0.212-0.402
		c5.254-10.244,7.833-23.819,8.961-35.017c3.058-32.358-3.074-75.759-28.65-97.921c-14.693-12.733-31.394-22.324-51.47-20.633
		c-9.897,0.833-17.834,4.269-26.33,9.165c-8.015,4.62-27.256,9.605-34.282,4.172c-4.087-3.16-3.223-8.738-4.847-13.71
		c-0.019-0.056-0.034-0.113-0.053-0.169c-0.012-0.035-0.021-0.07-0.033-0.104c-1.62-4.671-3.96-6.188-5.073-12.674
		c-1.152-6.711-3.132-13.231-5.766-19.511c-2.417-5.766-4.323-10.233-6.021-14.312c-1.275-3.067-2.438-5.921-3.601-8.92
		c-0.1-0.257-0.202-0.52-0.301-0.779c-1.114-2.892-2.247-5.97-3.503-9.537c-0.056-0.16-0.113-0.324-0.169-0.485
		c-0.405-1.153-0.822-2.352-1.256-3.621c-0.063-0.188-0.124-0.358-0.188-0.547c-1.009-2.961-1.949-4.62-2.613-5.894
		c-1.138-2.179-1.473-3.228,0.023-7.694c2.158-6.449,8.002-13.146,10.869-19.627c3.694-8.354,17.788-39.836,9.897-48.458
		c-12.348-13.496-47.273,31.531-51.829,39.327c-2.864-2.724-2.35-7.117-5.363-8.734c-4.926-2.644-15.331-0.165-20.408,1.078
		c-2.068-3.027-3.091-3.391-6.983-0.97c-4.645-9.771-14.688,11.804-15.118,16.5c-4.371,0.283-1.779-1.292-5.002,2.552
		c-10.916-21.432-9.367-45.871-23.972-66.359c-5.393-7.565-8.619-13.634-11.805-1.33c-4.103,15.839-4.626,32.39-2.808,48.602
		c1.121,9.996,6.261,18.454,7.81,27.715c0.21,1.259,3.234,3.483,3.096,4.673c-0.22,1.88-8.026,7.172-9.809,8.843
		c-4.139,3.88-8.024,7.724-11.32,12.366c-8.027,11.306-13.367,25.478-15.999,39.039c-1.63,8.402-14.129,18.168-17.762,27.285
		c-7.202,18.069-3.995,44.213,15.405,53.741c16.509,8.109,41.723,2.604,55.97-7.044c1.771,26.015,7.013,54.205,20.695,76.856
		c4.564,7.554,10.235,14.212,16.27,20.614c7.419,7.873-1.015,10.676,4.337,18.442c5.897,8.558,6.275,16.885,1.422,23.813
		c-1.778,2.54-5.845,4.094-7.919,7.191c-2.323,3.469-3.787,9.087-5.04,13.085c-3.388,10.82-2.193,14.077,8.675,17.073
		c8.297,2.289,16.933,2.711,25.448,1.474c-5.514,11.17,16.824,10.815,30.723,9.881c3.949-0.266,7.212-0.574,8.965-0.682
		c0.214-0.013,0.42-0.026,0.588-0.032c10.608-0.413,20.517-1.036,22.112-10.238c0.189-1.098,0.258-2.319,0.198-3.675
		c-0.054-1.243-0.214-2.596-0.499-4.078c-1.225-6.381-5.002-9.337-5.254-17.417c-0.118-3.753-0.996-9.347,0.431-13.049
		c0.679-1.756,8.896-11.885,9.18-12.043c7.702-4.292,16.976,3.243,17.385,11.122c0.057,1.061-0.035,2.035-0.235,2.947
		c-1.433,6.523-8.733,9.785-12.554,17.047c-0.054,0.102-0.115,0.198-0.169,0.303c-1.699,3.375-3.326,6.798-4.387,9.979
		c-2.631,7.887-1.775,14.273,10.145,14.646c7.384,0.229,15.248-1.125,22.604-1.401c12.26-0.464,45.129,7.613,55.142-0.362
		c5.266-4.193,3.536-13.438,2.341-19.841c-1.162-6.223-3.913-10.84-7.733-13.989c-1.574-1.296-3.337-2.338-5.24-3.144
		c-0.336-0.142-0.674-0.278-1.018-0.405c-6.717-2.482-15.07-2.14-23.586,0.68c-2.378,0.786-4.599,1.535-6.769,2.692
		c0.756-1.391,1.535-2.872,2.305-4.563c2.24-4.918,2.377-25.621-1.044-26.96c4.59-11.641,3.836-22.869,5.94-35.339
		c2.875-17.033,18.722-25.867,25.304-40.675c1.272-2.862,7.973-23.173,1.906-23.704c-1.194-0.107-1.498,12.944-2.087,15.313
		c-3.027,12.16-12.237,20.731-18.788,29.728c-8.479,11.643-7.02,18.04-9.288,31.097c-0.827,4.763-3.462,11.992-6.873,15.638
		c-10.656,11.385-30.68,8.522-44.416,13.91c2.726-18.058,15.231-35.858,9.97-54.532c-2.827,5.492-2.438,15.084-4.014,22.106
		c-2.324,10.354-6.457,20.026-8.513,30.593c-1.592,8.188-2.622,11.187-8.278,17.436c-2.819,3.114-12.23,8.811-1.223,5.211
		c-0.147,3.686,0.039,7.396,0.493,11.076c0.332,2.708,0.805,5.4,1.414,8.048c-0.663-0.513-1.345-1.007-2.029-1.495
		c-0.33-0.236-0.66-0.468-0.996-0.698c-0.174-0.121-0.354-0.233-0.529-0.352c-5.646-3.793-11.954-6.73-18.582-8.166
		c-4.771-1.036-14.883-2.032-14.762-0.91c0.052,0.483,1.973,1.351,7.022,2.778c8.538,2.413,42.965,10.493,33.942,26.78
		c-3.748,6.771-54.06,10.059-57.517,1.94c-1.151-2.705,8.429-23.298,9.576-26.745c0.193-0.58,0.392-1.189,0.59-1.799
		c0.127-0.395,0.252-0.797,0.381-1.202c1.622-5.139,3.185-11.157,3.095-17.524c4.215,10.026,8.572,5.71,1.71-3.254
		c-7.374-9.632-10.379-10.179-8.441-23.419c-0.071-0.078-0.477,0.483-0.468,0.612c-2.252-11.428-4.502-27.393-8.781-38.536
		c-0.073,0.021-0.145,0.049-0.218,0.07c-5.369,13.267,7.205,24.501,6.875,37.206c-14.145-1.761-25.336-8.096-34.207-17.095
		c-2.069-2.099-4.007-4.346-5.831-6.711c-14.845-19.271-21.797-46.6-25.001-69.082c-1.646-11.552-5.674-15.371,3.923-21.21
		c8.468-5.151,21.233-4.682,30.917-8.521c17.092-6.771,24.376-16.383,30.846-33.43c5.566-14.663,7.741-26.706,7.019-42.023
		c6.671,11.441,12.013,23.776,16.271,36.426c0.032,0.099,0.064,0.196,0.098,0.292c0.741,2.212,1.451,4.429,2.125,6.657
		c1.101,3.627,2.118,7.27,3.054,10.92c0.229,0.894,0.46,1.788,0.679,2.682c2.359,9.597,6.434,15.446,4.086,26.708
		c-1.216,5.833-8.517,27.258-0.595,10.676c0.43-0.899,0.84-1.847,1.231-2.821c2.436-6.054,3.987-13.328,3.231-19.859
		c-0.007-0.063-0.013-0.124-0.021-0.186c-0.049-0.405-0.109-0.808-0.18-1.211c-0.053-0.309-0.102-0.623-0.166-0.929
		c-0.054-0.255-0.121-0.502-0.183-0.751c-0.086-0.346-0.167-0.695-0.269-1.036c-0.178-0.593-0.376-1.179-0.604-1.748
		c3.986-1.211,7.271-1.925,10.627-1.777c1.896,0.083,3.814,0.448,5.893,1.152c0.634,0.214,1.277,0.451,1.943,0.732
		c0.098-0.354,0.244-0.66,0.414-0.945c0.774-1.302,2.255-1.919,4.064-2.166c3.249-0.44,7.543,0.309,10.676,0.451
		c4.269,0.199,39.465-1.909,20.155-2.266c17.275-14.671,38.44-14.37,56.076-5.49c14.839,7.471,27.18,21.014,32.599,36.836
		c0.951,2.779,1.682,5.627,2.183,8.523c0.381,2.21,0.635,4.445,0.729,6.703c1.983,47.029-34.527,77.117-40.259,120.01
		c-1.459,10.918,0.104,8.803,1.812,2.709c0.58-2.07,1.179-4.602,1.68-7.237c2.054-10.809,4.75-17.007,10.69-26.241
		c-0.266,4.029-5.514,33.201,3.587,21.672c0.303-0.384,0.62-0.811,0.954-1.286c0.2-0.284,0.394-0.55,0.605-0.867
		c-0.067,5.471,1.777,6.064,5.075,2.553c0.154,2.744,1.825,20.574,5.939,20.273c1.92-0.14,4.78-17.041,5.363-18.837
		c1.683,7.71,6.711-4.901,9.951-13.146c1.012-2.58,1.847-4.717,2.354-5.686C341.161,341.994,341.188,341.936,341.212,341.893z
		 M80.435,227.851c-5.306,6.054-15.472,8.359-22.776,9.741c-3.979,0.752-7.911,1.2-11.715,1.271
		c-14.761,0.273-27.589-5.197-33.602-21.205c-1.271-3.382-1.69-7.508-1.411-12.048c0.024-0.4,0.054-0.8,0.09-1.205
		c-0.024,1.481,0.217,2.872,0.785,4.064c0.323,0.677,0.737,1.299,1.293,1.82c1.041,0.972,1.875,1.232,2.544,0.985
		c2.666-0.979,2.675-10.145,2.295-15.841c-0.099-1.49-0.225-2.741-0.336-3.543c-0.071-0.505-0.135-0.837-0.184-0.939
		c-1.864,1.076-3.918,4.085-5.186,7.508c-0.296,0.797-0.543,1.619-0.74,2.443c-0.054,0.223-0.103,0.443-0.148,0.666
		c0.017-0.115,0.037-0.233,0.054-0.349c0.43-2.886,1.102-5.887,1.985-8.934c8.045-27.76,33.645-59.281,53.525-41.091
		c16.447,15.044,21.785,50.144,16.565,71.106c-0.003,0.011-0.005,0.021-0.007,0.032c-0.005,0.019-0.014,0.035-0.018,0.051
		c-0.109,0.395-0.261,0.766-0.402,1.142C82.433,225.145,81.545,226.583,80.435,227.851z M228.142,382.804
		c0.807,0.309,1.903,0.709,3.542,1.114c0.38,0.094,0.791,0.238,1.212,0.402c1.938,0.76,4.229,2.204,6.247,3.833
		c2.218,1.791,4.1,3.791,4.779,5.326c7.322,16.516-11.16,16.316-21.92,17.721c-2.856,0.381-6.063-0.325-8.71-1.366
		c2.432-7.248,3.298-16.709,8.423-22.717c1.477-1.731,2.368-2.901,3.001-3.664C226.026,381.878,226.238,382.073,228.142,382.804z
		 M300.229,406.519c-0.741,1.616-2.484,2.856-5.916,4.359c-7.048,3.087-18.463,2.266-28.935,0.617
		c-6.398-1.007-12.443-2.322-16.921-3.243c0-0.005,0.002-0.011,0.002-0.016c1.575-5.893,3.528-12.593,4.461-17.382
		c0.821-4.22,2.403-7.17,4.21-10.459c0.097-0.175,0.196-0.359,0.294-0.537c0.149,0.052,0.29,0.11,0.447,0.153
		c5.589,1.555,15.577-1.804,21.847-1.684c0.523,0.009,1.001,0.035,1.493,0.054c4.601,0.183,7.884,0.809,10.301,2.135
		c0.286,0.155,0.565,0.316,0.828,0.491c0.05,0.035,0.104,0.062,0.151,0.097c3.489,2.432,5.006,6.74,6.517,13.991
		C300.249,401.042,301.302,404.18,300.229,406.519z M252.85,352.713c5.9,2.637,6.093,8.932,7.127,15.997
		c-2.778,4.443-6.657,10.067-9.288,14.381c-5.769,9.46,0.478,7.621-6.874,4.314c-0.262-0.118-0.521-0.25-0.779-0.393
		c-0.792-0.435-1.567-0.979-2.334-1.586c-2.898-2.288-5.688-5.463-8.872-7.117c3.292-6.418-0.067-16.938-5.975-21.03
		C232.44,354.691,246.211,349.75,252.85,352.713z M126.009,337.184c2.225,1.32,5.372,2.508,7.27,4.244
		c5.342,3.015,11.993,7.291,17.673,8.123c-1.007,5.584,3.533,6.392,4.932,10.569c1.444,4.316,1.428,9.078,1.259,13.804
		c-0.468,13.063-2.051,7.723-9.538,4.528c-1.696-0.723-13.181-5.187-13.846-3.782c-0.102,0.212-0.03,0.464,0.185,0.746
		c2.087,2.763,17.677,8.561,18.665,11.484c0.892,2.644-4.37,18.853-5.868,19.878c-0.891,0.612-3.447,0.76-6.408,0.698
		c-4.058-0.08-8.875-0.556-11.292-0.795c-0.32-0.032-0.609-0.059-0.837-0.083c-13.101-1.245-17.045-3.148-12.507-16.157
		c0.104-0.299,0.208-0.58,0.313-0.873c1.779-4.979,3.635-9.138,6.467-13.015c0.381-0.521,0.773-1.038,1.191-1.551
		c0.481-0.591,1.324-0.534,2.215-0.403c1.212,0.183,2.512,0.513,3.112-0.424c0.049-0.075,0.088-0.167,0.135-0.247
		c2.171-3.753,1.674-11.699,1.449-16.074c6.843,5.629,0.454-3.995-0.827-6.938C127.695,346.195,124.27,344.601,126.009,337.184z
		 M135.224,204.052c-13.106,12.107-30.109,8.94-44.142,16.083c-0.441,0.226-0.878,0.462-1.313,0.709
		c-0.122,0.067-0.245,0.137-0.367,0.207c-0.294,0.172-0.586,0.354-0.878,0.537c-0.613,0.381-1.222,0.78-1.82,1.213
		c5.834-18.128,0.004-43.483-8.026-60.25c-0.358-0.746-0.722-1.468-1.091-2.169c-0.047-0.088-0.094-0.169-0.141-0.255
		c-0.333-0.623-0.668-1.235-1.01-1.82c-0.006-0.011-0.013-0.021-0.02-0.032c-8.199-14.029-18.783-16.939-30.718-11.693
		c-1.915,0.841-3.865,1.891-5.846,3.141c-3.044,1.921-6.161,4.301-9.334,7.114c0.973-3.192,2.032-6.26,3.17-9.233
		c6.504-17.001,15.815-30.644,29.03-43.168c1.356-1.286,2.753-2.56,4.193-3.824c0.422-0.37,0.829-0.743,1.257-1.111
		c10.287-8.841,12.734-13.905,10.96-27.572c-0.719-5.533-1.631-12.254-3.129-18.58c-0.738-3.114-1.627-6.123-2.696-8.855
		c-0.617-1.575-1.289-3.066-2.041-4.415c-2.157-3.874-5.522-8.61-6.449-5.66c-0.152,0.484-0.24,1.167-0.245,2.102
		c-0.029,5.885,7.158,17.848,8.602,25.092c1.983,9.946,1.345,19.787-2.455,28.128c-0.848,1.858-1.848,3.645-3.015,5.339
		c-0.075-0.087-0.143-0.183-0.216-0.271c-2.511-2.999-4.538-6.491-6.144-10.336c-8.455-20.242-5.27-50.189,0.063-68.672
		c0.095-0.33,0.189-0.67,0.286-0.993c0.324,0.334,0.615,0.682,0.929,1.02c3.122,3.369,5.773,6.939,8.033,10.683
		c1.124,1.864,2.146,3.773,3.099,5.714c0.098,0.2,0.203,0.397,0.3,0.598c0.084,0.174,0.175,0.347,0.258,0.522
		c5.201,11.01,8.004,23.128,10.958,35.42c2.14,8.91,5.005,32.136,18.106,30.458c0.638-0.082,1.291-0.202,1.978-0.406
		c-5.92-2.704-14.762-6.722-9.394-14.378c3.613,1.908,4.945-0.481,5.792-3.736c0.647-2.486,1.012-5.477,1.894-7.444
		c0.807-1.802,1.535-2.968,2.178-3.703c2.213-2.521,3.439,0.12,3.491,0.108c0.005-0.001,0.011-0.002,0.017-0.003
		c8.208-1.707,19.693-3.744,28.85-2.045c0.086,1.344,0.303,2.413,0.592,3.301c1.642,5.052,5.646,4.146,1.459,13.379
		c-2.722,6.008-2.89,5.236-7.235,8.986c-1.707,1.475-11.905,5.12-18.805,7.088c-0.602,0.172-1.176,0.33-1.719,0.474
		c-2.916,0.771-4.893,1.104-4.706,0.598c-1.703,4.615,26.139-2.086,27.679-3.163c8.322-5.821,11.065-21.283,17.492-30.664
		c5.173-7.547,11.841-15.353,19.647-21.291c5.674-4.315,11.949-7.635,18.7-9.135c0.923-0.205,1.853-0.391,2.794-0.526
		c0.052,1.367,0.068,2.733,0.052,4.099c-0.004,0.395-0.03,0.791-0.04,1.187c-0.024,0.975-0.049,1.951-0.106,2.924
		c-0.021,0.365-0.062,0.728-0.087,1.092c-0.072,1.014-0.148,2.027-0.256,3.038c-0.025,0.24-0.061,0.479-0.09,0.719
		c-0.131,1.148-0.273,2.294-0.447,3.438c-0.009,0.053-0.021,0.107-0.029,0.16c-2.477,15.991-9.157,31.371-18.338,44.599
		c-0.189,0.273-0.371,0.554-0.563,0.826c-0.969,1.373-2.129,2.711-3.398,4.031c-5.637,5.858-13.471,11.316-16.829,17.466
		c-0.314,0.575-0.533,1.199-0.711,1.843c-0.29,1.045-0.421,2.177-0.428,3.379c-0.036,6.789,3.754,15.78,3.658,23.751
		C161.996,163.672,146.854,193.307,135.224,204.052z M200.795,201.301c-0.265-0.021-0.526-0.04-0.82-0.07
		c-2.455-0.625-7.119,0.889-10.408,0.591c-1.582-0.143-2.85-0.698-3.395-2.118c-0.192-0.5-0.369-1.007-0.558-1.509
		c-3.412-9.06-6.231-18.354-9.232-27.588c-1.867-5.742-3.827-11.455-6.045-17.073c-0.172-0.438-0.33-0.88-0.507-1.316
		c-6.358-15.751-19.869-21.563-5.597-35.931c4.188-4.214,6.58-6.521,8.63-5.334c1.276,0.738,2.424,2.833,3.788,6.684
		c0.024,0.07,0.048,0.126,0.072,0.197c1.757,5.016,3.933,10.702,5.328,14.918c1.366,4.137,1.362,5.946,3.456,10.534
		c4.48,9.828,9.081,18.687,11.084,29.513c1.73,9.348,1.356,11.777,7.811,17.973c-1.982,1.243-2.237,2.685-1.833,4.097
		c0.773,2.703,3.966,5.291,2.198,6.188c-0.091,0.046-0.194,0.086-0.312,0.124C203.773,201.39,202.615,201.443,200.795,201.301z
		 M322.171,370.401c-1.4-6.161-1.262-28.479-6.838-13.624c-0.284-7.181-5.75-3.382-8.386,1.077
		c2.077-6.344,2.116-15.154,3.882-21.782c0.05-0.186,0.093-0.376,0.145-0.556c0.04-0.14,0.089-0.273,0.132-0.413
		c0.112-0.371,0.226-0.744,0.352-1.099c0.014-0.043,0.032-0.08,0.048-0.12c0.159-0.438,0.326-0.865,0.511-1.275
		c0.201-0.448,0.419-0.875,0.653-1.283c5.309,26.34,2.208-1.729,8.243-12.043c0.054,4.368,0.258,9.759,1.764,12.832
		c5.02-31.395,22.466-69.015,10.042-100.904c0.379-0.344,0.996,1.088,1.007,1.079c-1.437-3.549-2.743-7.146-3.922-10.786
		c15.328,36.853,26.297,70.202,11.374,110.649c-2.985,7.782-5.496,16.088-9.144,23.473
		C329.057,343.836,324.558,366.165,322.171,370.401z"/>
	<path d="M154.592,112.203c-0.451-3.419-5.8-7.377-2.578-15.508c0.829-2.093,1.749-4.09,2.73-6.026
		c5.031-9.916,11.958-18.04,19.731-26.945c0.436-0.5,0.871-0.998,1.311-1.503c-1.286,0.616-2.418,1.512-3.635,2.553
		c0.018-0.008,0.328-1.015,0.433-1.079c-0.043,0.034-0.089,0.068-0.13,0.101c-1.751,1.397-3.622,2.767-5.375,4.213
		c1.02-1.241,4.201-4.407,7.641-7.925c2.825-2.891,5.821-6.018,7.934-8.513c2.789-3.292,4.036-5.481,1.305-4.555
		c-12.06,4.086-26,27.285-32.736,36.576c-4.098,5.651-15.123,40.782,0.162,33.018C154.083,115.048,154.789,113.675,154.592,112.203z
		"/>
	<path d="M108.732,129.515c-4.117-11.125-12.926,2.182-10.042,8.628C103.129,148.063,109.658,136.141,108.732,129.515z
		 M103.719,131.911c-0.48,0.58-0.779,0.568-0.833,0.228c-1.022-0.214-0.637-2.756,1.34-2.389c0.29-0.237,0.621-0.457,1.014-0.63
		c-0.131,0.311-0.254,0.573-0.376,0.834c0.155,0.067,0.315,0.145,0.484,0.245C104.704,131.104,104.161,131.635,103.719,131.911z"/>
	<path fill="#FFFFFF" d="M105.24,129.119c-0.393,0.174-0.724,0.394-1.014,0.63c-1.009,0.828-1.416,1.91-1.34,2.389
		c0.054,0.34,0.352,0.353,0.833-0.228c0.31-0.372,0.693-0.997,1.145-1.958C104.986,129.692,105.109,129.43,105.24,129.119z"/>
	<path d="M77.886,132.823c5.901,3.248,9.991-8.982,9.935-12.402C85.575,108.48,70.487,128.748,77.886,132.823z M83.969,121.571
		c-0.502,0.068-0.92,0.061-1.269,0.006c-1.201,1.295-1.665,0.633-0.958-0.377c-0.828-0.645-0.29-1.71,0.933-0.929
		c0.409-0.307,0.912-0.606,1.545-0.857c-0.327,0.566-0.625,1.012-0.904,1.395C83.524,121.018,83.739,121.259,83.969,121.571z"/>
	<path fill="#FFFFFF" d="M82.675,120.271c-0.417,0.313-0.726,0.634-0.933,0.929c-0.707,1.01-0.243,1.672,0.958,0.377
		c0.187-0.201,0.396-0.466,0.616-0.769c0.279-0.382,0.577-0.828,0.904-1.395C83.587,119.664,83.084,119.963,82.675,120.271z"/>
	<path d="M55.696,210.563c-0.02-0.067-0.032-0.134-0.054-0.202c-0.1-1.551-1.187-5.264-2.855-7.825
		c-1.17-1.796-2.625-3.028-4.236-2.526c-0.038,0.011-0.065,0.064-0.085,0.145c-0.098,0.37-0.015,1.438,0.116,2.759
		c0.242,2.464,0.647,5.793,0.347,7.106c-0.709,3.111-0.636,5.318-0.123,6.773c1.366,3.876,5.85,2.397,7.003-1.681
		C56.173,213.826,56.2,212.28,55.696,210.563z"/>
	<path d="M74.43,265.755C76.321,268.963,72.922,263.199,74.43,265.755L74.43,265.755z"/>
</g>
</svg>
